<svg width="115" height="203" viewBox="0 0 115 203" fill="none" xmlns="http://www.w3.org/2000/svg">
<path fill-rule="evenodd" clip-rule="evenodd" d="M98.186 179.209C99.1881 178.745 100.377 179.18 100.842 180.183L100.852 180.205C102.269 183.261 105.575 190.392 114.442 199.613C115.207 200.409 115.182 201.676 114.386 202.441C113.59 203.207 112.324 203.182 111.558 202.386C102.25 192.705 98.7263 185.13 97.2127 181.865C96.7481 180.863 97.1839 179.674 98.186 179.209Z" fill="#FF0000"/>
<path fill-rule="evenodd" clip-rule="evenodd" d="M114.46 179.657C115.215 180.463 115.173 181.729 114.367 182.484C109.387 187.147 102.757 196.672 99.6849 201.999C99.1331 202.956 97.9101 203.284 96.9533 202.732C95.9964 202.18 95.668 200.957 96.2198 200C99.3747 194.529 106.236 184.618 111.633 179.564C112.439 178.809 113.705 178.85 114.46 179.657Z" fill="#FF0000"/>
<path fill-rule="evenodd" clip-rule="evenodd" d="M5.88289 0.021071C7.80428 0.232557 9.19044 1.9616 8.97895 3.88299C8.70988 6.32756 8.47139 8.91991 8.26305 11.6438C8.11564 13.5711 6.43369 15.0141 4.50633 14.8667C2.57896 14.7192 1.13602 13.0373 1.28344 11.1099C1.49693 8.31878 1.74236 5.64843 2.02097 3.11713C2.23246 1.19574 3.9615 -0.190415 5.88289 0.021071ZM3.87052 28.979C5.80306 29.0211 7.33557 30.6219 7.29348 32.5544C7.1833 37.613 7.14396 42.8853 7.17247 48.3053C7.18264 50.2383 5.62391 51.8135 3.69094 51.8237C1.75797 51.8338 0.182741 50.2751 0.17257 48.3421C0.143753 42.8651 0.18346 37.5294 0.295139 32.402C0.337231 30.4694 1.93798 28.9369 3.87052 28.979ZM3.97881 65.9542C5.91067 65.8881 7.53034 67.4006 7.59642 69.3325C7.77495 74.5511 8.00737 79.8216 8.29121 85.0925C8.39516 87.0227 6.91468 88.6717 4.98448 88.7756C3.05428 88.8796 1.40528 87.3991 1.30134 85.4689C1.01507 80.1529 0.780627 74.8368 0.600516 69.5718C0.534428 67.6399 2.04694 66.0203 3.97881 65.9542ZM5.92766 102.874C7.85444 102.719 9.54204 104.155 9.69704 106.082C10.1256 111.41 10.6049 116.663 11.1322 121.787C11.3301 123.709 9.9317 125.429 8.00886 125.627C6.08601 125.824 4.36683 124.426 4.16896 122.503C3.63608 117.325 3.15208 112.02 2.71958 106.643C2.56458 104.717 4.00089 103.029 5.92766 102.874ZM9.69803 139.649C11.6119 139.378 13.3832 140.71 13.6542 142.624C14.0308 145.284 14.4217 147.874 14.8263 150.384C15.1994 152.698 15.6701 154.863 16.2281 156.887C16.7419 158.75 15.6478 160.677 13.7844 161.191C11.9209 161.705 9.99375 160.611 9.47993 158.747C8.85006 156.463 8.3267 154.049 7.91548 151.498C7.5033 148.941 7.10576 146.306 6.72331 143.605C6.4523 141.692 7.78413 139.92 9.69803 139.649ZM18.9236 171.732C20.4222 170.511 22.6268 170.736 23.8477 172.235C26.6245 175.643 29.8906 178.338 33.5327 180.474C35.2 181.452 35.7589 183.596 34.7809 185.264C33.8029 186.931 31.6585 187.49 29.9911 186.512C25.6935 183.991 21.7698 180.767 18.4209 176.656C17.1999 175.158 17.425 172.953 18.9236 171.732ZM45.8458 189.152C46.228 187.258 48.074 186.031 49.9688 186.414C54.3081 187.289 58.8337 187.809 63.4267 188.112C65.3555 188.24 66.816 189.906 66.6888 191.835C66.5616 193.764 64.8949 195.224 62.9661 195.097C58.1597 194.78 53.3109 194.229 48.5845 193.275C46.6897 192.893 45.4635 191.047 45.8458 189.152ZM83.8184 195.49C83.1939 195.493 82.564 195.497 81.9284 195.5C79.9954 195.51 78.4207 193.95 78.4113 192.017C78.4018 190.084 79.9611 188.51 81.8941 188.5C82.5189 188.497 83.1424 188.494 83.7634 188.49C85.5111 188.48 87.2391 188.471 88.9238 188.471C90.8568 188.471 92.4238 190.038 92.4238 191.971C92.4238 193.904 90.8568 195.471 88.9238 195.471C87.2599 195.471 85.5602 195.48 83.8184 195.49Z" fill="black"/>
</svg>
