<svg width="116" height="249" viewBox="0 0 116 249" fill="none" xmlns="http://www.w3.org/2000/svg">
<path fill-rule="evenodd" clip-rule="evenodd" d="M99.186 224.542C100.188 224.078 101.377 224.513 101.842 225.515L101.852 225.538C103.269 228.594 106.575 235.725 115.442 244.946C116.207 245.742 116.182 247.009 115.386 247.774C114.59 248.54 113.324 248.515 112.558 247.719C103.25 238.038 99.7263 230.463 98.2127 227.198C97.7481 226.196 98.1839 225.007 99.186 224.542Z" fill="#FF0000"/>
<path fill-rule="evenodd" clip-rule="evenodd" d="M115.46 224.99C116.215 225.796 116.173 227.062 115.367 227.817C110.387 232.48 103.757 242.005 100.685 247.332C100.133 248.288 98.9101 248.617 97.9533 248.065C96.9964 247.513 96.668 246.29 97.2198 245.333C100.375 239.862 107.236 229.951 112.633 224.897C113.439 224.142 114.705 224.183 115.46 224.99Z" fill="#FF0000"/>
<path fill-rule="evenodd" clip-rule="evenodd" d="M53.7586 3.95783C53.7722 2.02488 55.3501 0.468927 57.2831 0.48251C59.7744 0.500017 62.3336 0.682773 64.9592 1.03028C66.8755 1.28391 68.2234 3.04297 67.9697 4.95925C67.7161 6.87554 65.9571 8.22339 64.0408 7.96976C61.6851 7.65798 59.4166 7.49768 57.2339 7.48234C55.3009 7.46875 53.745 5.89078 53.7586 3.95783ZM41.647 6.3787C42.4653 8.12998 41.7089 10.213 39.9576 11.0312C36.0229 12.8696 32.4372 15.422 29.1993 18.6855C27.8378 20.0577 25.6218 20.0664 24.2496 18.705C22.8774 17.3435 22.8687 15.1275 24.2301 13.7553C28.0128 9.94266 32.2688 6.8972 36.9945 4.68926C38.7458 3.87103 40.8288 4.62742 41.647 6.3787ZM17.3544 28.9549C19.0974 29.7906 19.833 31.881 18.9974 33.624C17.1222 37.5356 15.4707 41.8811 14.0518 46.6533C13.5009 48.5062 11.5523 49.5616 9.69944 49.0107C7.84661 48.4598 6.79119 46.5112 7.3421 44.6583C8.85202 39.5801 10.6305 34.8842 12.6853 30.598C13.5209 28.855 15.6113 28.1193 17.3544 28.9549ZM7.11129 61.0838C9.02284 61.371 10.3397 63.1534 10.0525 65.0649C9.70799 67.3582 9.40246 69.7149 9.13617 72.1342C8.89819 74.2963 8.68748 76.4881 8.5032 78.7079C8.34327 80.6343 6.652 82.0663 4.72563 81.9064C2.79926 81.7465 1.36727 80.0552 1.52719 78.1288C1.71644 75.8493 1.93309 73.5951 2.17819 71.3683C2.45409 68.8618 2.77135 66.4136 3.13017 64.025C3.41734 62.1135 5.19974 60.7967 7.11129 61.0838ZM4.17328 92.7575C6.10577 92.802 7.6363 94.4047 7.59183 96.3371C7.49175 100.686 7.47463 105.113 7.53481 109.606C7.5607 111.539 6.01482 113.127 4.082 113.153C2.14918 113.178 0.561327 111.633 0.535439 109.7C0.474199 105.127 0.491523 100.616 0.593685 96.1761C0.638156 94.2436 2.2408 92.7131 4.17328 92.7575ZM4.45924 124.015C6.38943 123.911 8.0385 125.391 8.14254 127.321C8.37884 131.705 8.67741 136.134 9.03335 140.598C9.18701 142.525 7.74952 144.211 5.82264 144.365C3.89576 144.519 2.20916 143.081 2.0555 141.154C1.69506 136.634 1.3924 132.145 1.15268 127.698C1.04865 125.768 2.52904 124.119 4.45924 124.015ZM6.85392 155.183C8.7754 154.972 10.5039 156.359 10.7146 158.28C11.1966 162.675 11.7264 167.091 12.2994 171.517C12.5476 173.434 11.1947 175.189 9.27768 175.437C7.36068 175.686 5.60547 174.333 5.35732 172.416C4.77877 167.946 4.24356 163.486 3.75635 159.043C3.54562 157.122 4.93245 155.393 6.85392 155.183ZM10.8014 186.195C12.7121 185.903 14.4981 187.215 14.7906 189.126C15.1269 191.323 15.4723 193.52 15.8263 195.716C16.1995 198.031 16.6701 200.196 17.2281 202.219C17.7419 204.083 16.6479 206.01 14.7844 206.524C12.9209 207.038 10.9938 205.944 10.48 204.08C9.85009 201.796 9.32673 199.381 8.91551 196.83C8.55862 194.617 8.2103 192.401 7.87112 190.184C7.5787 188.274 8.89062 186.488 10.8014 186.195ZM19.9236 217.065C21.4222 215.844 23.6268 216.069 24.8478 217.568C27.6246 220.976 30.8907 223.671 34.5327 225.807C36.2001 226.785 36.7589 228.929 35.7809 230.597C34.803 232.264 32.6585 232.823 30.9912 231.845C26.6936 229.324 22.7698 226.1 19.4209 221.989C18.1999 220.491 18.425 218.286 19.9236 217.065ZM46.8458 234.485C47.2281 232.59 49.074 231.364 50.9688 231.747C55.3081 232.622 59.8337 233.142 64.4267 233.445C66.3555 233.572 67.816 235.239 67.6888 237.168C67.5616 239.097 65.8949 240.557 63.9661 240.43C59.1597 240.113 54.311 239.562 49.5846 238.608C47.6897 238.226 46.4636 236.38 46.8458 234.485ZM84.8185 240.823C84.1939 240.826 83.564 240.83 82.9284 240.833C80.9954 240.842 79.4207 239.283 79.4113 237.35C79.4018 235.417 80.9611 233.842 82.8941 233.833C83.519 233.83 84.1424 233.826 84.7634 233.823C86.5111 233.813 88.2392 233.804 89.9238 233.804C91.8568 233.804 93.4238 235.371 93.4238 237.304C93.4238 239.237 91.8568 240.804 89.9238 240.804C88.26 240.804 86.5603 240.813 84.8185 240.823Z" fill="black"/>
</svg>
